# xmcd
#
# Track frame offsets:
#	150
#	16800
#	31387
#	47810
#	60442
#	79822
#	92797
#	107142
#	124355
#	143050
#	169150
#	187050
#	201472
#	225160
#	237935
#
# Disc length: 3461 seconds
#
# Revision: 1
# Processed by: cddbd v1.5.1PL0 Copyright (c) Steve Scherf et al.
# Submitted via: audiograbber 1.83.01
#
DISCID=c90d830f
DTITLE=Marco Gottardi - On a carousel
DYEAR=1994
DGENRE=Country
TTITLE0=Marco Gottardi: Can't help falling in love
TTITLE1=Marco Gottardi: Go back home
TTITLE2=Marco Gottardi: Shareholder value blues
TTITLE3=Marco Gottardi: Endless road
TTITLE4=Marco Gottardi: Angie and Joey
TTITLE5=Marco Gottardi: Just one night
TTITLE6=Marco Gottardi: On a carousel
TTITLE7=Marco Gottardi: Burning heart
TTITLE8=Marco Gottardi: Montana sunrise
TTITLE9=Marco Gottardi: Wild as the wind
TTITLE10=Marco Gottardi: Glad to be here
TTITLE11=Marco Gottardi: I'm your countryman
TTITLE12=Marco Gottardi: When I feel blue
TTITLE13=Marco Gottardi: I'm on fire
TTITLE14=Marco Gottardi: The rose
EXTD=
EXTT0=
EXTT1=
EXTT2=
EXTT3=
EXTT4=
EXTT5=
EXTT6=
EXTT7=
EXTT8=
EXTT9=
EXTT10=
EXTT11=
EXTT12=
EXTT13=
EXTT14=
PLAYORDER=
